<?xml version="1.0"?>
<svg xmlns="http://www.w3.org/2000/svg" id="Capa_1" enable-background="new 0 0 512 512" height="512px" viewBox="0 0 512 512" width="512px" class=""><g><g><path d="m241.228 382.366v-258.322c0-36.354-29.577-65.931-65.931-65.931h-175.297v313.561h205.298c13.248 0 25.585 3.941 35.93 10.692zm-54.915-59.832h-137.108v-30h137.107v30zm0-60.003h-137.108v-30h137.107v30zm0-58.689h-137.108v-30h137.107v30zm0-59.492h-107.106v-30h107.105v30z" data-original="#000000" class="active-path" data-old_color="#000000" fill="#007BFF"/><path d="m372.045 58.113-14.325 27.795 22.042 42.765-5.504 10.678h87.799v30h-103.26l-1.077 2.091 14.122 27.401h90.215v30h-89.836l-14.501 28.14.283.549h104.054v30h-88.593l6.298 12.221-22.043 42.776 15.018 29.145h139.263v-313.561z" data-original="#000000" class="active-path" data-old_color="#000000" fill="#007BFF"/><path d="m346.012 299.754-22.042-42.771 21.637-41.985v-1.573l-21.637-41.983 22.042-42.768-22.042-42.765 14.326-27.797h-1.152c-36.354 0-65.931 29.577-65.931 65.931v258.323c10.344-6.751 22.682-10.693 35.929-10.693h31.847l-15.018-29.145z" data-original="#000000" class="active-path" data-old_color="#000000" fill="#007BFF"/><path d="m241.22 437.229c-.203-19.639-16.235-35.556-35.922-35.556h-205.298v52.173l241.228.041v-.041h.002c-.001 0-.011-16.491-.01-16.617z" data-original="#000000" class="active-path" data-old_color="#000000" fill="#007BFF"/><path d="m271.22 437.239c.001.122.009.243.009.366v16.241h240.771v-52.173h-204.858c-19.69.001-35.724 15.922-35.922 35.566z" data-original="#000000" class="active-path" data-old_color="#000000" fill="#007BFF"/></g></g> </svg>
