<?xml version="1.0"?>
<svg xmlns="http://www.w3.org/2000/svg" xmlns:xlink="http://www.w3.org/1999/xlink" version="1.1" id="Capa_1" x="0px" y="0px" viewBox="0 0 512.007 512.007" style="enable-background:new 0 0 512.007 512.007;" xml:space="preserve" width="512px" height="512px"><g transform="matrix(0.868659 0 0 0.868659 33.6237 33.6237)"><g>
	<g>
		<g>
			<path d="M246.611,441.837l48.625-44.771c2.396-2.208,3.656-5.385,3.406-8.646c-0.24-3.25-1.958-6.208-4.667-8.031l-42.26-28.573     l27.219-59.99c1.75-3.865,1.042-8.396-1.792-11.542l-78.073-86.646l11.823-38.5c1.375-4.49-0.344-9.344-4.229-11.969     l-40.594-27.438l45.573-62.823c3.063-4.229,2.615-10.052-1.063-13.771L174.923,3.159c-2.438-2.448-5.896-3.552-9.344-3.01     L35.423,22.066c-11.49,1.938-21.438,8.156-28,17.542c-6.344,9.052-8.729,19.979-6.74,30.781l75.177,407.208     c3.719,20.156,21.885,34.406,42.25,34.406c2.406,0,4.854-0.208,7.302-0.615L262.6,488.295c3.698-0.625,6.792-3.135,8.156-6.625     c1.375-3.49,0.813-7.438-1.479-10.406L246.611,441.837z M121.871,490.347c-11.844,2.01-22.979-5.479-25.031-16.625L21.663,66.514     c-0.948-5.135,0.198-10.344,3.229-14.677c3.26-4.656,8.26-7.75,14.073-8.729l124.698-21l25.385,25.615l-46.719,64.417     c-1.698,2.333-2.375,5.271-1.865,8.115c0.5,2.844,2.135,5.365,4.531,6.979l43.187,29.188l-11.281,36.729     c-1.104,3.594-0.24,7.49,2.271,10.271l77.448,85.948l-28.062,61.833c-2.146,4.74-0.563,10.333,3.75,13.24l38.552,26.073     l-45.885,42.25c-4.063,3.74-4.594,9.969-1.219,14.354l17.781,23.083L121.871,490.347z" data-original="#000000" class="active-path" data-old_color="#000000" fill="#007BFF"/>
			<path d="M508.882,109.795L402.215,3.128c-2-2-4.708-3.125-7.542-3.125h-92.448c-3.938,0-7.552,2.167-9.406,5.635     c-1.854,3.469-1.646,7.677,0.531,10.948l23.594,35.396l-57.813,57.813c-4.167,4.167-4.167,10.917,0,15.083l37.229,37.229     l-17.896,35.792c-1.625,3.26-1.479,7.135,0.396,10.26l60.531,100.875l-38.927,58.385c-2.823,4.229-2.26,9.865,1.333,13.458     l33.469,33.469l-53.177,35.448c-4.479,2.979-6.031,8.833-3.625,13.646l21.333,42.667c1.813,3.615,5.5,5.896,9.542,5.896h160     c23.531,0,42.667-19.135,42.667-42.667v-352C512.007,114.503,510.882,111.795,508.882,109.795z M405.34,36.42l70.25,70.25     h-48.917c-11.76,0-21.333-9.573-21.333-21.333V36.42z M490.673,469.337c0,11.76-9.573,21.333-21.333,21.333H315.934     l-14.177-28.344l56.167-37.448c2.656-1.771,4.385-4.646,4.698-7.823c0.313-3.177-0.813-6.333-3.073-8.594l-36.479-36.479     l37.813-56.729c2.292-3.427,2.396-7.875,0.271-11.406l-60.99-101.646l18.719-37.427c2.052-4.104,1.25-9.063-2-12.313     l-35.125-35.125l56.458-56.458c3.594-3.594,4.156-9.229,1.333-13.458l-17.396-26.083h61.854v64     c0,23.531,19.135,42.667,42.667,42.667h64V469.337z" data-original="#000000" class="active-path" data-old_color="#000000" fill="#007BFF"/>
		</g>
	</g>
</g></g> </svg>
